<?xml version="1.0" encoding="UTF-8" standalone="no"?>
<!-- Created with Inkscape (http://www.inkscape.org/) -->

<svg
   width="256"
   height="256"
   viewBox="0 0 256 256"
   version="1.1"
   id="svg5"
   xmlns="http://www.w3.org/2000/svg"
   xmlns:svg="http://www.w3.org/2000/svg"
   xmlns:rdf="http://www.w3.org/1999/02/22-rdf-syntax-ns#"
   xmlns:cc="http://creativecommons.org/ns#"
   xmlns:dc="http://purl.org/dc/elements/1.1/">
  <title
     id="title1045">Icon PEM</title>
  <defs
     id="defs2" />
  <g
     id="layer1">
    <path
       id="path236"
       style="fill:#ffe680;paint-order:stroke markers fill;stop-color:#000000"
       d="M 128,16 A 112,112 0 0 0 16,128 112,112 0 0 0 128,240 112,112 0 0 0 240,128 112,112 0 0 0 128,16 Z m 0,6 A 106,106 0 0 1 234,128 106,106 0 0 1 128,234 106,106 0 0 1 22,128 106,106 0 0 1 128,22 Z" />
    <path
       style="fill:#ffeeaa"
       d="M 72,48 V 208 H 184 V 72 L 160,48 Z"
       id="path664" />
    <path
       style="fill:#ffcc00"
       d="m 160,48 v 24 h 24 z"
       id="path715" />
    <rect
       style="fill:#ffdd55;stroke-width:1;paint-order:stroke markers fill;stop-color:#000000"
       id="rect403"
       width="112"
       height="64"
       x="56"
       y="96" />
    <g
       aria-label="PEM"
       id="text1161"
       style="fill:#554400">
      <path
         d="m 68.359993,114 v 28 h 6.48 v -7.72 h 5.64 c 7.48,0 12.16,-3.88 12.16,-10.12 0,-6.28 -4.68,-10.16 -12.16,-10.16 z m 6.48,15 v -9.72 h 5.28 c 3.96,0 5.96,1.8 5.96,4.88 0,3.04 -2,4.84 -5.96,4.84 z"
         id="path1728" />
      <path
         d="m 103.68,130.32 h 13 v -5.04 h -13 V 119.2 H 118.4 V 114 H 97.239998 v 28 H 118.92 v -5.2 h -15.24 z"
         id="path1730" />
      <path
         d="m 155.55998,114 h -5.32 l -10.32,17.4 -10.48,-17.4 h -5.36 v 28 h 6.08 v -16.44 l 8.2,13.48 h 2.92 l 8.24,-13.84 0.04,16.8 h 6.08 z"
         id="path1732" />
    </g>
  </g>
  <metadata
     id="metadata1043">
    <rdf:RDF>
      <cc:Work
         rdf:about="">
        <cc:license
           rdf:resource="http://creativecommons.org/licenses/by-nc/4.0/" />
        <dc:title>Icon PEM</dc:title>
        <dc:creator>
          <cc:Agent>
            <dc:title>Sanjeev Premi</dc:title>
          </cc:Agent>
        </dc:creator>
        <dc:description>Custom Icon for PEM</dc:description>
        <dc:identifier>Sanjeev Premi</dc:identifier>
      </cc:Work>
      <cc:License
         rdf:about="http://creativecommons.org/licenses/by-nc/4.0/">
        <cc:permits
           rdf:resource="http://creativecommons.org/ns#Reproduction" />
        <cc:permits
           rdf:resource="http://creativecommons.org/ns#Distribution" />
        <cc:requires
           rdf:resource="http://creativecommons.org/ns#Notice" />
        <cc:requires
           rdf:resource="http://creativecommons.org/ns#Attribution" />
        <cc:prohibits
           rdf:resource="http://creativecommons.org/ns#CommercialUse" />
        <cc:permits
           rdf:resource="http://creativecommons.org/ns#DerivativeWorks" />
      </cc:License>
    </rdf:RDF>
  </metadata>
</svg>
