<?xml version="1.0" encoding="UTF-8" standalone="no"?>
<!-- Created with Inkscape (http://www.inkscape.org/) -->

<svg
   width="256"
   height="256"
   viewBox="0 0 256 256"
   version="1.1"
   id="svg2727"
   sodipodi:docname="pushti-home4.svg"
   inkscape:version="1.2.2 (b0a8486541, 2022-12-01)"
   inkscape:export-filename="pushti-home4-opt.svg"
   inkscape:export-xdpi="299.947"
   inkscape:export-ydpi="299.947"
   xmlns:inkscape="http://www.inkscape.org/namespaces/inkscape"
   xmlns:sodipodi="http://sodipodi.sourceforge.net/DTD/sodipodi-0.dtd"
   xmlns="http://www.w3.org/2000/svg"
   xmlns:svg="http://www.w3.org/2000/svg">
  <sodipodi:namedview
     id="namedview252"
     pagecolor="#ffffff"
     bordercolor="#666666"
     borderopacity="1.0"
     inkscape:showpageshadow="2"
     inkscape:pageopacity="0.0"
     inkscape:pagecheckerboard="0"
     inkscape:deskcolor="#d1d1d1"
     showgrid="true"
     inkscape:zoom="2.378199"
     inkscape:cx="7.5687527"
     inkscape:cy="147.17019"
     inkscape:window-width="1920"
     inkscape:window-height="1015"
     inkscape:window-x="0"
     inkscape:window-y="0"
     inkscape:window-maximized="1"
     inkscape:current-layer="text1528">
    <inkscape:grid
       type="xygrid"
       id="grid1410" />
  </sodipodi:namedview>
  <defs
     id="defs2724" />
  <path
     id="rect513"
     style="display:inline;fill:#55ddff;paint-order:stroke markers fill;stop-color:#000000"
     inkscape:label="green"
     d="m 214.88867,90.57813 -61.04687,22.21874 c -0.56594,1.87855 -0.85743,4.0207 -0.85743,6.44336 0,4.512 1.00745,8.40007 3.02344,11.66406 2.112,3.16799 4.89557,5.7594 8.35156,7.77539 3.55199,2.016 7.68078,3.45632 12.38477,4.32032 4.70399,0.95999 9.69658,1.43946 14.97656,1.43945 2.592,0 5.23194,-0.14364 7.91993,-0.43164 2.78399,-0.288 5.42392,-0.71892 7.91992,-1.29492 2.49599,-0.48 4.80011,-1.10504 6.9121,-1.87304 2.208,-0.76801 4.07924,-1.68034 5.61524,-2.73633 l -5.32812,-13.67969 c -2.784,1.632 -6.2392,2.97525 -10.36719,4.03125 -4.128,1.05599 -8.40041,1.58399 -12.81641,1.58399 -6.91198,-1e-5 -12.0482,-1.00745 -15.4082,-3.02344 -3.264,-2.01599 -4.89649,-4.6074 -4.89649,-7.7754 1e-5,-3.16798 1.05598,-5.56917 3.16798,-7.20116 2.11199,-1.63201 5.23334,-2.97526 9.36132,-4.03126 l 13.39063,-3.59961 c 6.43198,-1.72798 10.9917,-3.74484 13.67969,-6.04882 2.60221,-2.32341 3.93445,-4.91813 4.01757,-7.78125 z m -78.0332,28.40233 -17.71094,6.44532 v 14.69336 h 17.71094 z m -38.591799,14.04493 -29.068358,10.58008 7.03711,10.48242 c 1.055995,-0.96 2.447783,-1.77527 4.175781,-2.44727 1.631994,-0.67199 3.264488,-1.0078 4.896483,-1.00781 2.687994,0 4.751409,0.67163 6.191408,2.01563 1.439996,1.344 2.160153,3.02306 2.160154,5.03906 0,2.39999 -0.912331,4.41683 -2.736328,6.04883 -1.823994,1.632 -4.559036,2.44727 -8.207031,2.44726 -4.89599,0 -9.64982,-1.29473 -14.257812,-3.88672 -4.607992,-2.592 -9.262806,-6.48006 -13.966797,-11.66406 l -10.51172,9.50391 c 4.895994,6.33599 10.847485,11.2315 17.855471,14.6875 7.007984,3.45599 14.304687,5.18359 21.888672,5.18359 4.223992,0 8.063537,-0.57652 11.519531,-1.72851 3.455993,-1.056 6.431735,-2.59144 8.927735,-4.60743 2.4,-2.01599 4.22467,-4.41523 5.47266,-7.19921 1.34399,-2.784 2.01562,-5.80828 2.01562,-9.07227 0,-2.784 -0.528,-5.42393 -1.58399,-7.91993 -1.05599,-2.39999 -2.59142,-4.56047 -4.60742,-6.48046 -2.00791,-1.73411 -4.4123,-3.11631 -7.201168,-4.15625 z" />
  <path
     id="rect517"
     style="display:inline;fill:#aaeeff;paint-order:stroke markers fill;stop-color:#000000"
     inkscape:label="blue"
     d="m 202.42382,41.115238 -13.91796,5.064447 c 0.49922,0.493956 1.00593,0.98177 1.48633,1.492187 0.13578,0.144271 0.25848,0.287567 0.39257,0.431643 l -7.1621,5e-6 -37.19337,13.537106 2.34767,2e-6 6.62304,-5e-6 V 79.35156 c 0,5.85599 1.15108,10.46423 3.45508,13.82422 2.4,3.26399 5.28064,5.56811 8.64062,6.91211 l 1e-5,0.72071 c -4.41599,1.72798 -7.8712,3.98359 -10.36719,6.76757 -2.40066,2.58533 -3.61728,6.30977 -3.70899,11.11524 L 211.92578,97.25 c 1.94431,-2.11397 2.97852,-4.42226 2.97852,-6.95313 V 61.640628 l 9.5039,-7e-6 V 48.103512 l -16.42968,5e-6 c -1.61778,-2.311765 -3.51451,-4.644231 -5.5547,-6.988279 z m -29.71289,20.52539 24.48048,-5e-6 V 82.66406 Z m -35.85546,3.339838 -17.71094,6.445317 v 59.593747 l 17.71094,-6.44531 z m 35.85547,5.156257 22.89648,19.871087 c -0.768,0.67201 -2.01614,1.24851 -3.74414,1.72852 -1.63199,0.47999 -3.83905,0.71875 -6.62305,0.71874 -3.55199,10e-6 -6.52773,-0.91037 -8.92773,-2.73436 -2.4,-1.92 -3.60156,-5.04135 -3.60157,-9.36133 z m -74.447268,8.888667 -17.710938,6.44727 10e-7,8.42382 c -1.056,1.34399 -2.639958,2.49508 -4.751953,3.45508 -2.015996,0.96 -4.463757,1.44141 -7.34375,1.44141 -3.263995,-1e-5 -5.952456,-0.86575 -8.064455,-2.59375 -0.849372,-0.69494 -1.519563,-1.58501 -2.027344,-2.65235 L 41.53711,99.67383 c 1.439028,3.06346 3.356809,5.55459 5.751954,7.47071 2.399994,1.91999 5.183566,3.3603 8.35156,4.3203 3.263995,0.864 6.670663,1.29492 10.222658,1.29493 3.647991,-1e-5 6.720801,-0.38435 9.216797,-1.15235 2.591995,-0.768 4.416657,-1.58327 5.472655,-2.44726 l 2e-6,28.63086 c -1.152205,0.27734 -2.304832,0.61712 -3.457031,1.0332 -3.455996,1.248 -6.095929,2.83195 -7.919923,4.75195 l 3.03711,4.5254 26.050779,-9.48048 z m -43.775391,71.60742 -7.257811,6.56251 10.058592,-3.66212 c -0.931984,-0.92876 -1.864921,-1.86903 -2.800781,-2.90039 z" />
  <path
     id="rect515"
     style="display:inline;fill:#00ccff;paint-order:stroke markers fill;stop-color:#000000"
     d="m 151.25586,15.992188 c -10.84798,10e-7 -19.29577,2.207057 -25.34375,6.623046 -6.04798,4.319992 -9.07227,10.081266 -9.07227,17.28125 0,1.632001 0.19218,3.215958 0.57618,4.751955 0.384,1.439997 0.76834,2.591082 1.15234,3.455073 l -8.35157,3e-6 -2.88086,2e-6 -75.744133,-2e-6 v 13.53711 h 7.919922 l 10e-7,26.927735 c -3e-6,4.31999 0.671625,8.01589 2.015624,11.08789 0.504534,1.07634 1.090229,2.05527 1.712889,2.99023 l 17.34961,-6.31445 c -0.06261,-0.0489 -0.135622,-0.0824 -0.197266,-0.13281 -2.111995,-1.728 -3.167969,-4.60669 -3.16797,-8.63867 V 61.640628 l 23.328125,10e-7 -1e-6,27.425781 17.71094,-6.44531 -3e-6,-20.980478 9.072262,2e-6 2.88086,-1e-6 8.92774,4e-6 V 75.01953 l 17.71094,-6.445313 V 61.64063 l 11.52149,-2e-6 6.62304,-5e-6 v 0.330078 L 204.76562,43.85742 c -1.36262,-1.696146 -2.81471,-3.399325 -4.40624,-5.113285 -3.744,-4.127986 -8.11154,-7.872427 -13.10352,-11.232419 -4.896,-3.359995 -10.36803,-6.095033 -16.41602,-8.207026 -6.04798,-2.207998 -12.576,-3.312503 -19.58398,-3.312502 z m 1.58399,14.111332 c 4.99199,-2e-6 9.74387,0.817214 14.25585,2.449216 4.608,1.631993 8.78335,3.743944 12.52735,6.335938 3.83998,2.591995 7.29714,5.51921 10.36914,8.783198 0.13573,0.144288 0.25848,0.287567 0.39257,0.431643 l -42.00781,-2e-6 -13.10547,3e-6 c -0.28803,-0.76799 -0.48014,-1.48817 -0.57617,-2.16016 v -2.302731 c 0,-3.743991 1.48886,-6.911909 4.46484,-9.503904 2.97599,-2.687993 7.53571,-4.033203 13.6797,-4.033201 z"
     inkscape:label="orange" />
  <g
     aria-label="PARSE &amp; VERIFY"
     id="text1466"
     style="font-weight:bold;font-size:24px;line-height:1.25;font-family:Roboto;-inkscape-font-specification:'Roboto Bold';letter-spacing:0px;word-spacing:0px;fill:#008000">
    <path
       d="m 40.519531,200.19859 h 1.195313 q 1.675781,0 2.507812,-0.65625 0.832031,-0.66797 0.832031,-1.93359 0,-1.27734 -0.703125,-1.88672 -0.691406,-0.60937 -2.179687,-0.60937 h -1.652344 z m 8.203125,-2.71875 q 0,2.76563 -1.734375,4.23047 -1.722656,1.46485 -4.910156,1.46485 h -1.558594 v 6.09375 h -3.632812 v -17.13282 h 5.472656 q 3.117187,0 4.734375,1.34766 1.628906,1.33594 1.628906,3.99609 z"
       style="font-family:'Open Sans';-inkscape-font-specification:'Open Sans Bold'"
       id="path1563" />
    <path
       d="m 61.25,209.26891 -1.242188,-4.07813 h -6.246093 l -1.242188,4.07813 h -3.914062 l 6.046875,-17.20313 h 4.441406 l 6.070312,17.20313 z m -2.109375,-7.125 q -1.722656,-5.54297 -1.945313,-6.26954 -0.210937,-0.72656 -0.304687,-1.14843 -0.386719,1.5 -2.214844,7.41797 z"
       style="font-family:'Open Sans';-inkscape-font-specification:'Open Sans Bold'"
       id="path1565" />
    <path
       d="M 70.953125,199.74156 H 72.125 q 1.722656,0 2.542969,-0.57422 0.820312,-0.57422 0.820312,-1.80468 0,-1.21875 -0.84375,-1.73438 -0.832031,-0.51562 -2.589844,-0.51562 h -1.101562 z m 0,2.95313 v 6.57422 H 67.320312 V 192.13609 H 72.3125 q 3.492187,0 5.167969,1.27735 1.675781,1.26562 1.675781,3.85547 0,1.51171 -0.832031,2.69531 -0.832032,1.17187 -2.355469,1.83984 3.867187,5.77735 5.039062,7.46485 h -4.03125 l -4.089843,-6.57422 z"
       style="font-family:'Open Sans';-inkscape-font-specification:'Open Sans Bold'"
       id="path1567" />
    <path
       d="m 93.277344,204.51109 q 0,2.32032 -1.675782,3.65625 -1.664062,1.33594 -4.640625,1.33594 -2.742187,0 -4.851562,-1.03125 v -3.375 q 1.734375,0.77344 2.929687,1.08984 1.207032,0.31641 2.203125,0.31641 1.195313,0 1.828125,-0.45703 0.644532,-0.45703 0.644532,-1.35938 0,-0.5039 -0.28125,-0.89062 -0.28125,-0.39844 -0.832032,-0.76172 -0.539062,-0.36328 -2.214843,-1.16016 -1.570313,-0.73828 -2.355469,-1.41796 -0.785156,-0.67969 -1.253906,-1.58204 -0.46875,-0.90234 -0.46875,-2.10937 0,-2.27344 1.535156,-3.57422 1.546875,-1.30078 4.265625,-1.30078 1.335937,0 2.542969,0.31641 1.21875,0.3164 2.542968,0.89062 l -1.171875,2.82422 q -1.371093,-0.5625 -2.273437,-0.78516 -0.890625,-0.22265 -1.757813,-0.22265 -1.03125,0 -1.582031,0.48047 -0.550781,0.48046 -0.550781,1.2539 0,0.48047 0.222656,0.84375 0.222656,0.35156 0.703125,0.69141 0.492188,0.32812 2.308594,1.19531 2.402344,1.14844 3.292969,2.30859 0.890625,1.14844 0.890625,2.82422 z"
       style="font-family:'Open Sans';-inkscape-font-specification:'Open Sans Bold'"
       id="path1569" />
    <path
       d="M 106.25,209.26891 H 96.382812 V 192.13609 H 106.25 v 2.97657 h -6.23437 v 3.76171 h 5.80078 v 2.97657 h -5.80078 v 4.41797 H 106.25 Z"
       style="font-family:'Open Sans';-inkscape-font-specification:'Open Sans Bold'"
       id="path1571" />
    <path
       d="m 131.90234,209.26891 h -4.41796 l -1.34766,-1.32422 q -2.23828,1.55859 -5.0625,1.55859 -2.85938,0 -4.53516,-1.3125 -1.67578,-1.3125 -1.67578,-3.55078 0,-1.60547 0.70313,-2.73047 0.71484,-1.13672 2.4375,-2.12109 -0.87891,-1.00782 -1.27735,-1.92188 -0.39843,-0.92578 -0.39843,-2.01562 0,-1.78125 1.35937,-2.8711 1.37109,-1.08984 3.65625,-1.08984 2.17969,0 3.48047,1.01953 1.3125,1.00781 1.3125,2.70703 0,1.39453 -0.80859,2.55469 -0.8086,1.14844 -2.61329,2.19141 l 3.32813,3.24609 q 0.83203,-1.37109 1.44141,-3.52734 h 3.72656 q -0.42188,1.58203 -1.16016,3.09375 -0.73828,1.5 -1.67578,2.66015 z M 118.625,204.30016 q 0,1.00781 0.75,1.60546 0.76172,0.59766 1.94531,0.59766 1.47657,0 2.66016,-0.71484 l -3.89063,-3.86719 q -0.67968,0.51562 -1.07812,1.07812 -0.38672,0.5625 -0.38672,1.30079 z m 4.20703,-8.3086 q 0,-0.62109 -0.42187,-0.97265 -0.42188,-0.36329 -1.08985,-0.36329 -0.78515,0 -1.24218,0.375 -0.44532,0.375 -0.44532,1.06641 0,1.03125 1.11328,2.27344 1.00782,-0.5625 1.54688,-1.10156 0.53906,-0.55079 0.53906,-1.27735 z"
       style="font-family:'Open Sans';-inkscape-font-specification:'Open Sans Bold'"
       id="path1573" />
    <path
       d="m 150.06641,192.13609 h 3.66796 l -5.82421,17.13282 h -3.96094 l -5.8125,-17.13282 h 3.66797 l 3.22265,10.19532 q 0.26953,0.90234 0.55078,2.10937 0.29297,1.19531 0.36329,1.66406 0.1289,-1.07812 0.8789,-3.77343 z"
       style="font-family:'Open Sans';-inkscape-font-specification:'Open Sans Bold'"
       id="path1575" />
    <path
       d="m 165.75781,209.26891 h -9.86719 v -17.13282 h 9.86719 v 2.97657 h -6.23437 v 3.76171 h 5.80078 v 2.97657 h -5.80078 v 4.41797 h 6.23437 z"
       style="font-family:'Open Sans';-inkscape-font-specification:'Open Sans Bold'"
       id="path1577" />
    <path
       d="m 172.96484,199.74156 h 1.17188 q 1.72265,0 2.54297,-0.57422 0.82031,-0.57422 0.82031,-1.80468 0,-1.21875 -0.84375,-1.73438 -0.83203,-0.51562 -2.58984,-0.51562 h -1.10157 z m 0,2.95313 v 6.57422 h -3.63281 v -17.13282 h 4.99219 q 3.49219,0 5.16797,1.27735 1.67578,1.26562 1.67578,3.85547 0,1.51171 -0.83203,2.69531 -0.83203,1.17187 -2.35547,1.83984 3.86719,5.77735 5.03906,7.46485 h -4.03125 l -4.08984,-6.57422 z"
       style="font-family:'Open Sans';-inkscape-font-specification:'Open Sans Bold'"
       id="path1579" />
    <path
       d="m 185.17578,209.26891 v -17.13282 h 3.63281 v 17.13282 z"
       style="font-family:'Open Sans';-inkscape-font-specification:'Open Sans Bold'"
       id="path1581" />
    <path
       d="m 196.69531,209.26891 h -3.57422 v -17.13282 h 9.82032 v 2.97657 h -6.2461 v 4.41796 h 5.8125 v 2.96485 h -5.8125 z"
       style="font-family:'Open Sans';-inkscape-font-specification:'Open Sans Bold'"
       id="path1583" />
    <path
       d="m 211.625,199.19078 3.57422,-7.05469 h 3.91406 l -5.68359,10.46485 v 6.66797 h -3.60938 v -6.55079 l -5.68359,-10.58203 h 3.9375 z"
       style="font-family:'Open Sans';-inkscape-font-specification:'Open Sans Bold'"
       id="path1585" />
  </g>
  <g
     aria-label="CERTIFICATES"
     id="text1528"
     style="font-weight:bold;font-size:24px;line-height:1.25;font-family:Roboto;-inkscape-font-specification:'Roboto Bold';letter-spacing:0px;word-spacing:0px;fill:#ff6600">
    <path
       d="m 58.074219,225.59444 q -2.050782,0 -3.175782,1.54687 -1.125,1.53516 -1.125,4.28906 0,5.73047 4.300782,5.73047 1.804687,0 4.371093,-0.90234 v 3.04687 q -2.109375,0.87891 -4.710937,0.87891 -3.738281,0 -5.71875,-2.26172 -1.980469,-2.27344 -1.980469,-6.51562 0,-2.67188 0.972656,-4.67578 0.972657,-2.01563 2.789063,-3.08204 1.828125,-1.07812 4.277344,-1.07812 2.496093,0 5.015625,1.20703 l -1.171875,2.95313 q -0.960938,-0.45704 -1.933594,-0.79688 -0.972656,-0.33984 -1.910156,-0.33984 z"
       style="font-family:'Open Sans';-inkscape-font-specification:'Open Sans Bold'"
       id="path1588" />
    <path
       d="m 75.957031,239.94991 h -9.867187 v -17.13282 h 9.867187 v 2.97657 h -6.234375 v 3.76171 h 5.800781 v 2.97657 h -5.800781 v 4.41797 h 6.234375 z"
       style="font-family:'Open Sans';-inkscape-font-specification:'Open Sans Bold'"
       id="path1590" />
    <path
       d="m 83.164062,230.42256 h 1.171875 q 1.722657,0 2.542969,-0.57422 0.820313,-0.57422 0.820313,-1.80468 0,-1.21875 -0.84375,-1.73438 -0.832032,-0.51562 -2.589844,-0.51562 h -1.101563 z m 0,2.95313 v 6.57422 H 79.53125 v -17.13282 h 4.992187 q 3.492188,0 5.167969,1.27735 1.675781,1.26562 1.675781,3.85547 0,1.51171 -0.832031,2.69531 -0.832031,1.17187 -2.355469,1.83984 3.867188,5.77735 5.039063,7.46485 H 89.1875 l -4.089844,-6.57422 z"
       style="font-family:'Open Sans';-inkscape-font-specification:'Open Sans Bold'"
       id="path1592" />
    <path
       d="m 101.98438,239.94991 h -3.632818 v -14.10938 h -4.652343 v -3.02344 h 12.937501 v 3.02344 h -4.65234 z"
       style="font-family:'Open Sans';-inkscape-font-specification:'Open Sans Bold'"
       id="path1594" />
    <path
       d="m 109.27344,239.94991 v -17.13282 h 3.63281 v 17.13282 z"
       style="font-family:'Open Sans';-inkscape-font-specification:'Open Sans Bold'"
       id="path1596" />
    <path
       d="m 120.79297,239.94991 h -3.57422 v -17.13282 h 9.82031 v 2.97657 h -6.24609 v 4.41796 h 5.8125 v 2.96485 h -5.8125 z"
       style="font-family:'Open Sans';-inkscape-font-specification:'Open Sans Bold'"
       id="path1598" />
    <path
       d="m 130.39062,239.94991 v -17.13282 h 3.63282 v 17.13282 z"
       style="font-family:'Open Sans';-inkscape-font-specification:'Open Sans Bold'"
       id="path1600" />
    <path
       d="m 145.61328,225.59444 q -2.05078,0 -3.17578,1.54687 -1.125,1.53516 -1.125,4.28906 0,5.73047 4.30078,5.73047 1.80469,0 4.37109,-0.90234 v 3.04687 q -2.10937,0.87891 -4.71093,0.87891 -3.73828,0 -5.71875,-2.26172 -1.98047,-2.27344 -1.98047,-6.51562 0,-2.67188 0.97265,-4.67578 0.97266,-2.01563 2.78907,-3.08204 1.82812,-1.07812 4.27734,-1.07812 2.49609,0 5.01563,1.20703 l -1.17188,2.95313 q -0.96094,-0.45704 -1.93359,-0.79688 -0.97266,-0.33984 -1.91016,-0.33984 z"
       style="font-family:'Open Sans';-inkscape-font-specification:'Open Sans Bold'"
       id="path1602" />
    <path
       d="m 164.11719,239.94991 -1.24219,-4.07813 h -6.24609 l -1.24219,4.07813 h -3.91406 l 6.04687,-17.20313 h 4.44141 l 6.07031,17.20313 z m -2.10938,-7.125 q -1.72265,-5.54297 -1.94531,-6.26954 -0.21094,-0.72656 -0.30469,-1.14843 -0.38672,1.5 -2.21484,7.41797 z"
       style="font-family:'Open Sans';-inkscape-font-specification:'Open Sans Bold'"
       id="path1604" />
    <path
       d="m 175.12109,239.94991 h -3.63281 v -14.10938 h -4.65234 v -3.02344 h 12.9375 v 3.02344 h -4.65235 z"
       style="font-family:'Open Sans';-inkscape-font-specification:'Open Sans Bold'"
       id="path1606" />
    <path
       d="m 192.27734,239.94991 h -9.86718 v -17.13282 h 9.86718 v 2.97657 h -6.23437 v 3.76171 h 5.80078 v 2.97657 h -5.80078 v 4.41797 h 6.23437 z"
       style="font-family:'Open Sans';-inkscape-font-specification:'Open Sans Bold'"
       id="path1608" />
    <path
       d="m 205.96484,235.19209 q 0,2.32032 -1.67578,3.65625 -1.66406,1.33594 -4.64062,1.33594 -2.74219,0 -4.85157,-1.03125 v -3.375 q 1.73438,0.77344 2.92969,1.08984 1.20703,0.31641 2.20313,0.31641 1.19531,0 1.82812,-0.45703 0.64453,-0.45703 0.64453,-1.35938 0,-0.5039 -0.28125,-0.89062 -0.28125,-0.39844 -0.83203,-0.76172 -0.53906,-0.36328 -2.21484,-1.16016 -1.57031,-0.73828 -2.35547,-1.41796 -0.78516,-0.67969 -1.25391,-1.58204 -0.46875,-0.90234 -0.46875,-2.10937 0,-2.27344 1.53516,-3.57422 1.54687,-1.30078 4.26562,-1.30078 1.33594,0 2.54297,0.31641 1.21875,0.3164 2.54297,0.89062 l -1.17187,2.82422 q -1.3711,-0.5625 -2.27344,-0.78516 -0.89063,-0.22265 -1.75781,-0.22265 -1.03125,0 -1.58203,0.48047 -0.55079,0.48046 -0.55079,1.2539 0,0.48047 0.22266,0.84375 0.22266,0.35156 0.70313,0.69141 0.49218,0.32812 2.30859,1.19531 2.40234,1.14844 3.29297,2.30859 0.89062,1.14844 0.89062,2.82422 z"
       style="font-family:'Open Sans';-inkscape-font-specification:'Open Sans Bold'"
       id="path1610" />
  </g>
</svg>
