<?xml version="1.0" encoding="UTF-8" standalone="no"?>
<!-- Created with Inkscape (http://www.inkscape.org/) -->

<svg
   width="256"
   height="256"
   viewBox="0 0 256 256"
   version="1.1"
   id="svg5"
   xmlns="http://www.w3.org/2000/svg"
   xmlns:svg="http://www.w3.org/2000/svg"
   xmlns:rdf="http://www.w3.org/1999/02/22-rdf-syntax-ns#"
   xmlns:cc="http://creativecommons.org/ns#"
   xmlns:dc="http://purl.org/dc/elements/1.1/">
  <title
     id="title1045">Icon PDF</title>
  <defs
     id="defs2" />
  <g
     id="layer1">
    <path
       id="path236"
       style="fill:#55ddff;paint-order:stroke markers fill;stop-color:#000000"
       d="M 128,16 A 112,112 0 0 0 16,128 112,112 0 0 0 128,240 112,112 0 0 0 240,128 112,112 0 0 0 128,16 Z m 0,6 A 106,106 0 0 1 234,128 106,106 0 0 1 128,234 106,106 0 0 1 22,128 106,106 0 0 1 128,22 Z" />
    <path
       style="fill:#aaeeff"
       d="M 72,48 V 208 H 184 V 72 L 160,48 Z"
       id="path664" />
    <path
       style="fill:#006680"
       d="m 160,48 v 24 h 24 z"
       id="path715" />
    <rect
       style="fill:#2ad4ff;stroke-width:1;paint-order:stroke markers fill;stop-color:#000000"
       id="rect403"
       width="112"
       height="64"
       x="56"
       y="96" />
    <g
       aria-label="PDF"
       id="text2031"
       style="fill:#004455">
      <path
         d="m 70.459984,114 v 28 h 6.48 v -7.72 h 5.64 c 7.48,0 12.16,-3.88 12.16,-10.12 0,-6.28 -4.68,-10.16 -12.16,-10.16 z m 6.48,15 v -9.72 h 5.28 c 3.96,0 5.96,1.8 5.96,4.88 0,3.04 -2,4.84 -5.96,4.84 z"
         id="path242" />
      <path
         d="m 112.05999,142 c 9.16,0 15.44,-5.52 15.44,-14 0,-8.48 -6.28,-14 -15.44,-14 H 99.339989 v 28 z m -6.24,-22.68 h 5.92 c 5.56,0 9.2,3.32 9.2,8.68 0,5.36 -3.64,8.68 -9.2,8.68 h -5.92 z"
         id="path244" />
      <path
         d="m 153.54,114 h -21.16 v 28 h 6.48 v -10.2 h 12.96 v -5.2 h -12.96 v -7.4 h 14.68 z"
         id="path246" />
    </g>
  </g>
  <metadata
     id="metadata1043">
    <rdf:RDF>
      <cc:License
         rdf:about="http://creativecommons.org/licenses/by-nc/4.0/">
        <cc:permits
           rdf:resource="http://creativecommons.org/ns#Reproduction" />
        <cc:permits
           rdf:resource="http://creativecommons.org/ns#Distribution" />
        <cc:requires
           rdf:resource="http://creativecommons.org/ns#Notice" />
        <cc:requires
           rdf:resource="http://creativecommons.org/ns#Attribution" />
        <cc:prohibits
           rdf:resource="http://creativecommons.org/ns#CommercialUse" />
        <cc:permits
           rdf:resource="http://creativecommons.org/ns#DerivativeWorks" />
      </cc:License>
      <cc:Work
         rdf:about="">
        <cc:license
           rdf:resource="http://creativecommons.org/licenses/by-nc/4.0/" />
        <dc:title>Icon PDF</dc:title>
        <dc:creator>
          <cc:Agent>
            <dc:title>Sanjeev Premi</dc:title>
          </cc:Agent>
        </dc:creator>
        <dc:description>Custom Icon for PDF</dc:description>
        <dc:identifier>Sanjeev Premi</dc:identifier>
      </cc:Work>
    </rdf:RDF>
  </metadata>
</svg>
