<?xml version="1.0" encoding="UTF-8" standalone="no"?>
<!-- Created with Inkscape (http://www.inkscape.org/) -->

<svg
   width="24"
   height="24"
   viewBox="0 0 24 24"
   version="1.1"
   id="svg4070"
   xmlns="http://www.w3.org/2000/svg"
   xmlns:svg="http://www.w3.org/2000/svg">
  <defs
     id="defs4067" />
  <g
     id="layer1">
    <path
       id="rect5163"
       style="fill:#b4ecfc;paint-order:stroke markers fill;stop-color:#000000"
       d="M 2.0078125,1 C 1.4492095,1 1,1.4492095 1,2.0078125 V 21.992188 C 1,22.55079 1.4492095,23 2.0078125,23 H 21.992188 C 22.55079,23 23,22.55079 23,21.992188 V 2.0078125 C 23,1.4492095 22.55079,1 21.992188,1 Z M 6.5371094,3 H 17.265625 V 4.8476562 H 15.634766 V 15.382812 c 0.380575,0.141912 0.708415,0.329765 0.982422,0.566407 0.275107,0.262007 0.484802,0.557257 0.628906,0.884765 0.144114,0.34061 0.216797,0.700167 0.216797,1.080078 0,0.445414 -0.09198,0.85837 -0.275391,1.238282 -0.170305,0.379911 -0.418584,0.707313 -0.746094,0.982422 -0.340609,0.275107 -0.747136,0.484802 -1.21875,0.628906 C 14.751042,20.92088 14.226807,21 13.650391,21 c -1.034931,0 -2.03,-0.235417 -2.986329,-0.707031 -0.956327,-0.471613 -1.7693797,-1.141234 -2.4374995,-2.00586 l 1.4355469,-1.296875 c 0.6419176,0.707421 1.2774316,1.238087 1.9062496,1.591797 0.628819,0.353711 1.277195,0.53125 1.945313,0.53125 0.497814,0 0.870234,-0.111277 1.11914,-0.333984 0.248908,-0.222706 0.373047,-0.496709 0.373047,-0.824219 0,-0.275108 -0.09842,-0.506048 -0.294921,-0.689453 -0.196506,-0.183408 -0.47694,-0.275391 -0.84375,-0.275391 -0.222706,0 -0.445262,0.04697 -0.667969,0.138672 -0.235807,0.0917 -0.426209,0.202981 -0.570313,0.333985 l -0.96289,-1.435547 c 0.248907,-0.262008 0.608464,-0.478133 1.080078,-0.648438 0.157233,-0.05678 0.315424,-0.102775 0.472656,-0.140625 v -3.90625 c -0.144104,0.117905 -0.394336,0.229183 -0.748047,0.333985 -0.340609,0.104802 -0.758045,0.15625 -1.255859,0.15625 -0.484714,0 -0.951072,-0.05788 -1.3964846,-0.175782 C 9.3860465,11.515481 9.0071972,11.318648 8.6796875,11.056641 8.3521787,10.794636 8.0890839,10.454369 7.8925781,10.035156 7.7091732,9.6159441 7.6171875,9.1110019 7.6171875,8.5214844 V 4.8476562 H 6.5371094 Z m 3.4980466,1.8476562 v 3.5371094 c 0,0.5502165 0.143432,0.9419275 0.431641,1.1777344 0.288209,0.235807 0.65615,0.3535156 1.101562,0.3535156 0.393012,0 0.726846,-0.064309 1.001953,-0.1953125 C 12.85852,9.5896993 13.074646,9.4314523 13.21875,9.2480469 V 4.8476562 Z" />
  </g>
</svg>
