<?xml version="1.0" encoding="UTF-8" standalone="no"?>
<!-- Created with Inkscape (http://www.inkscape.org/) -->

<svg
   width="500"
   height="500"
   viewBox="0 0 500 500"
   version="1.1"
   id="svg5"
   sodipodi:docname="pushti-404.svg"
   inkscape:version="1.2.2 (b0a8486541, 2022-12-01)"
   xmlns:inkscape="http://www.inkscape.org/namespaces/inkscape"
   xmlns:sodipodi="http://sodipodi.sourceforge.net/DTD/sodipodi-0.dtd"
   xmlns="http://www.w3.org/2000/svg"
   xmlns:svg="http://www.w3.org/2000/svg"
   xmlns:rdf="http://www.w3.org/1999/02/22-rdf-syntax-ns#"
   xmlns:cc="http://creativecommons.org/ns#"
   xmlns:dc="http://purl.org/dc/elements/1.1/">
  <title
     id="title4513">Pushti 404</title>
  <sodipodi:namedview
     id="namedview7"
     pagecolor="#ffffff"
     bordercolor="#666666"
     borderopacity="1.0"
     inkscape:showpageshadow="2"
     inkscape:pageopacity="0.0"
     inkscape:pagecheckerboard="0"
     inkscape:deskcolor="#d1d1d1"
     inkscape:document-units="mm"
     showgrid="true"
     inkscape:zoom="1.0847363"
     inkscape:cx="490.44177"
     inkscape:cy="182.53284"
     inkscape:window-width="1920"
     inkscape:window-height="1015"
     inkscape:window-x="0"
     inkscape:window-y="0"
     inkscape:window-maximized="1"
     inkscape:current-layer="layer1"
     showguides="true">
    <inkscape:grid
       type="xygrid"
       id="grid132"
       empspacing="10" />
    <sodipodi:guide
       position="310,340"
       orientation="0,-1"
       id="guide2157"
       inkscape:locked="false" />
    <sodipodi:guide
       position="340,290"
       orientation="1,0"
       id="guide2159"
       inkscape:locked="false" />
    <sodipodi:guide
       position="160,310"
       orientation="1,0"
       id="guide2161"
       inkscape:locked="false" />
  </sodipodi:namedview>
  <defs
     id="defs2" />
  <g
     inkscape:label="Layer 1"
     inkscape:groupmode="layer"
     id="layer1">
    <path
       id="path3053"
       style="fill:#d5d5ff;fill-opacity:0.533333;stroke:none;stroke-width:0.999999;stroke-dasharray:none;stroke-opacity:1;paint-order:stroke markers fill;stop-color:#000000"
       inkscape:transform-center-x="-2.1599604"
       inkscape:transform-center-y="0.41208779"
       d="m 243.83471,46.641589 a 19.881088,12.643058 0 0 0 -18.43791,7.936483 9.9405445,9.4822928 0 0 0 -5.75075,-1.750786 9.9405445,9.4822928 0 0 0 -9.94055,9.482315 9.9405445,9.4822928 0 0 0 9.94055,9.482276 9.9405445,9.4822928 0 0 0 1.84962,-0.186425 A 25.182712,12.643058 0 0 0 245.16011,80 25.182712,12.643058 0 0 0 261.3808,76.994794 21.372171,15.645784 0 0 0 268.62782,77.955383 21.372171,15.645784 0 0 0 290,62.309601 21.372171,15.645784 0 0 0 268.62782,46.663818 a 21.372171,15.645784 0 0 0 -12.20177,2.838501 19.881088,12.643058 0 0 0 -12.59134,-2.86073 z" />
    <path
       style="fill:#87cdde;stroke:none;stroke-width:1px;stroke-linecap:butt;stroke-linejoin:miter;stroke-opacity:1"
       d="m 0,360 c 0,0 -0.99019514,-10 50,-10 50,0 54.58581,31.17916 90,30 37.69147,-1.25499 52.30853,-28.74501 90,-30 35.41419,-1.17916 74.56618,30 110,30 50,0 80,-60 110,-60 16.99673,0 50,10 50,10 V 500 H 0 Z"
       id="path1865"
       sodipodi:nodetypes="cssssscccc" />
    <rect
       style="fill:#e5d5ff;stroke:#53676c;stroke-width:4;paint-order:stroke markers fill;stop-color:#000000;stroke-dasharray:none"
       id="rect447"
       width="149"
       height="149"
       x="-363.9386"
       y="-10.385206"
       ry="10"
       rx="10"
       transform="rotate(-135)" />
    <g
       aria-label="404"
       id="text555"
       style="font-weight:bold;font-size:64px;line-height:1.25;font-family:Roboto;-inkscape-font-specification:'Roboto Bold';letter-spacing:0px;word-spacing:0px;fill:#53676c">
      <path
         d="M 196.65625,166.54674 215.625,136.57799 h 9.125 v 28.375 h 5.15625 v 7.28125 H 224.75 v 9.84375 h -9.03125 v -9.84375 H 197.0625 Z m 8.96875,-1.59375 h 10.09375 v -16.15625 l -0.625,1.09375 z"
         id="path6424" />
      <path
         d="m 265.34375,155.32799 v 7.90625 q 0,10.28125 -4.21875,14.875 -4.21875,4.59375 -11.09375,4.59375 -6.875,0 -11.15625,-4.59375 -4.25,-4.59375 -4.25,-14.875 v -7.90625 q 0,-10.25 4.21875,-14.8125 4.25,-4.5625 11.125,-4.5625 6.875,0 11.125,4.5625 4.25,4.5625 4.25,14.8125 z m -9.03125,9.125 v -10.375 q 0,-6.0625 -1.65625,-8.4375 -1.65625,-2.40625 -4.6875,-2.40625 -3,0 -4.65625,2.40625 -1.65625,2.375 -1.65625,8.4375 v 10.375 q 0,6.09375 1.65625,8.53125 1.6875,2.4375 4.71875,2.4375 3,0 4.625,-2.4375 1.65625,-2.4375 1.65625,-8.53125 z"
         id="path6426" />
      <path
         d="m 270.09375,166.54674 18.96875,-29.96875 h 9.125 v 28.375 h 5.15625 v 7.28125 h -5.15625 v 9.84375 h -9.03125 v -9.84375 H 270.5 Z m 8.96875,-1.59375 h 10.09375 v -16.15625 l -0.625,1.09375 z"
         id="path6428" />
    </g>
    <circle
       style="fill:#a05a2c;stroke:none;stroke-width:1;stroke-dasharray:none;stroke-opacity:1;paint-order:stroke markers fill;stop-color:#000000"
       id="circle2891"
       cx="340"
       cy="160"
       r="3" />
    <circle
       style="fill:#f4e3d7;stroke:none;stroke-width:1;stroke-dasharray:none;stroke-opacity:1;paint-order:stroke markers fill;stop-color:#000000"
       id="circle1509"
       cx="340"
       cy="160.02965"
       r="2.5" />
    <path
       id="path1721"
       style="fill:#d7e3f4;stroke:none;stroke-width:3;stroke-dasharray:none;stroke-opacity:1;paint-order:stroke markers fill;stop-color:#000000;fill-opacity:0.66666669"
       d="m 94.557343,169.09321 a 17.777846,10.469007 0 0 0 -17.285424,8.0961 16.161678,10.469007 0 0 0 -11.099789,-2.8616 16.161678,10.469007 0 0 0 -14.972282,6.59016 25.858686,20.938013 0 0 0 -9.132612,-1.35565 25.858686,20.938013 0 0 0 -25.858685,20.93803 25.858686,20.938013 0 0 0 25.858685,20.938 25.858686,20.938013 0 0 0 16.478598,-4.83783 16.161678,11.777633 0 0 0 9.380089,2.22058 16.161678,11.777633 0 0 0 7.775281,-1.48753 32.323356,18.320762 0 0 0 18.083409,3.18261 32.323356,18.320762 0 0 0 32.323357,-18.32076 32.323356,18.320762 0 0 0 -17.44577,-16.25967 17.777846,10.469007 0 0 0 3.67299,-6.37343 17.777846,10.469007 0 0 0 -17.777847,-10.46901 z" />
    <path
       id="path1734"
       style="fill:#eef4ee;fill-opacity:1;stroke:none;stroke-width:3;stroke-dasharray:none;stroke-opacity:1;paint-order:stroke markers fill;stop-color:#000000"
       d="m 410,180 a 19.906357,14.160145 0 0 0 -9.96614,1.93852 22.1059,16.208249 0 0 0 -5.50405,-0.51428 22.1059,16.208249 0 0 0 -20.64118,10.52165 17.669991,8.2801827 0 0 0 -3.70134,-0.18544 17.669991,8.2801827 0 0 0 -17.66949,8.28018 17.669991,8.2801827 0 0 0 17.66949,8.2802 17.669991,8.2801827 0 0 0 7.00999,-0.68787 22.1059,16.208249 0 0 0 17.33253,6.20797 22.1059,16.208249 0 0 0 16.68971,-5.58265 A 19.906357,14.160145 0 0 0 429.90636,194.1604 19.906357,14.160145 0 0 0 410,180 Z" />
    <ellipse
       style="fill:#6c5353;stroke:none;stroke-width:3;stroke-dasharray:none;stroke-opacity:1;paint-order:stroke markers fill;stop-color:#000000"
       id="path1740"
       cx="-72.072624"
       cy="235"
       rx="40"
       ry="30" />
    <path
       style="fill:#5fbcd3;stroke:none;stroke-width:1px;stroke-linecap:butt;stroke-linejoin:miter;stroke-opacity:1"
       d="m 0,400 c 0,0 50.423152,-16.24514 80,-20 47.34606,-6.01071 72.28078,20.80857 120,20 41.22514,-0.69853 69.43215,-46.67145 100,-40 30.56785,6.67145 78.66417,29.41855 100,30 28.66378,0.78116 41.42329,-32.36508 70,-30 18.79193,1.55527 30,10 30,10 V 500 H 0 Z"
       id="path1863"
       sodipodi:nodetypes="csszsscccc" />
    <path
       style="fill:#37abc8;stroke:none;stroke-width:1px;stroke-linecap:butt;stroke-linejoin:miter;stroke-opacity:1"
       d="m 0,450 c 0,0 42.359905,-12.368 70,-20 41.90913,-11.57197 69.2685,10.13859 100,10 58.16735,-0.26233 71.99717,-30.47895 110,-30 34.79826,0.43856 53.83227,37.66981 100,30 25.04269,-4.16032 50,-30 80,-30 7.45356,0 40,10 40,10 0,-66.61756 0,56.65733 0,79.986 H -1.5e-6 Z"
       id="path1861"
       sodipodi:nodetypes="cssasscccc" />
    <path
       id="path2004"
       style="fill:#e9ddaf;stroke-width:3;paint-order:stroke markers fill;stop-color:#000000"
       d="M 159.14893,43.95129 C 161.87549,57.579472 158.68823,78.26176 150,80 c -8.68824,1.73824 -19.5874,-16.125801 -22.31396,-29.753982 -2.72657,-13.628183 3.75195,-17.859797 12.44018,-19.598037 8.68824,-1.73824 16.29614,-0.324873 19.02271,13.303309 z"
       sodipodi:nodetypes="sssss" />
    <path
       id="path2004-3"
       style="fill:#f4eed7;stroke-width:3;paint-order:stroke markers fill;stop-color:#000000"
       d="M 175.5,43.83205 C 175.5,57.984876 168.56041,78 160,78 c -8.56041,0 -15.5,-20.015124 -15.5,-34.16795 0,-14.152826 6.93959,-17.083975 15.5,-17.083975 8.56041,0 15.5,2.931149 15.5,17.083975 z"
       sodipodi:nodetypes="sssss" />
    <path
       id="path2004-6-7"
       style="fill:#d7f4e3;stroke-width:3;paint-order:stroke markers fill;stop-color:#000000"
       d="M 189.80864,49.764671 C 187.74514,63.229733 178.18867,81.254902 170,80 c -8.18866,-1.254901 -11.90867,-21.314672 -9.84517,-34.779732 2.0635,-13.465058 9.12911,-15.236464 17.31777,-13.981563 8.18867,1.254902 14.39954,5.060909 12.33604,18.525966 z"
       sodipodi:nodetypes="sssss" />
    <path
       id="path2004-6-5"
       style="fill:#dde9af;stroke-width:3;paint-order:stroke markers fill;stop-color:#000000"
       d="M 337.17651,43.897797 C 340.56344,57.237097 338.47938,77.84704 330,80 c -8.47938,2.15296 -20.1431,-14.966347 -23.53002,-28.305648 -3.38692,-13.339302 2.78551,-17.847281 11.2649,-20.000242 8.47937,-2.152959 16.05471,-1.135615 19.44163,12.203687 z"
       sodipodi:nodetypes="sssss" />
    <path
       id="path2004-6-3"
       style="fill:#d7d7f4;stroke-width:3;paint-order:stroke markers fill;stop-color:#000000"
       d="M 372.24389,54.269148 C 368.7,66.666405 357.11204,82.318917 349,80 c -8.11204,-2.318919 -9.67633,-21.731149 -6.13243,-34.128406 3.54388,-12.397258 10.85397,-13.084959 18.96601,-10.766041 8.11204,2.318917 13.95421,6.766337 10.41031,19.163595 z"
       sodipodi:nodetypes="sssss" />
    <path
       id="path2004-6-56"
       style="fill:#ffd5e5;stroke-width:3;paint-order:stroke markers fill;stop-color:#000000"
       d="M 357.5,41.956498 C 357.5,56.698489 349.66498,78 340,78 c -9.66498,0 -17.5,-21.301511 -17.5,-36.043502 0,-14.741992 7.83502,-17.795161 17.5,-17.795161 9.66498,0 17.5,3.053169 17.5,17.795161 z"
       sodipodi:nodetypes="sssss" />
    <path
       style="fill:#c8b7be;stroke:#c8c4b7;stroke-width:1px;stroke-linecap:butt;stroke-linejoin:miter;stroke-opacity:1"
       d="M 340,160 V 78"
       id="path2123"
       sodipodi:nodetypes="cc" />
    <path
       style="fill:#c8b7be;stroke:#c8c4b7;stroke-width:1px;stroke-linecap:butt;stroke-linejoin:miter;stroke-opacity:1"
       d="M 340,160 350,80"
       id="path2123-2"
       sodipodi:nodetypes="cc" />
    <circle
       style="fill:#a05a2c;stroke:none;stroke-width:1;stroke-dasharray:none;stroke-opacity:1;paint-order:stroke markers fill;stop-color:#000000"
       id="circle2891-9"
       cx="160"
       cy="160"
       r="3" />
    <circle
       style="fill:#f4e3d7;stroke:none;stroke-width:1;stroke-dasharray:none;stroke-opacity:1;paint-order:stroke markers fill;stop-color:#000000"
       id="circle1509-1"
       cx="160"
       cy="160"
       r="2.5" />
    <path
       style="fill:#c8b7be;stroke:#c8c4b7;stroke-width:1px;stroke-linecap:butt;stroke-linejoin:miter;stroke-opacity:1"
       d="M 340,160 330,80"
       id="path2123-27"
       sodipodi:nodetypes="cc" />
    <path
       style="fill:#c8b7be;stroke:#c8c4b7;stroke-width:1px;stroke-linecap:butt;stroke-linejoin:miter;stroke-opacity:1"
       d="M 160,160 V 78.000003"
       id="path2123-9"
       sodipodi:nodetypes="cc" />
    <path
       style="fill:#c8b7be;stroke:#c8c4b7;stroke-width:1px;stroke-linecap:butt;stroke-linejoin:miter;stroke-opacity:1"
       d="M 160,160 170,80.000003"
       id="path2123-2-3"
       sodipodi:nodetypes="cc" />
    <path
       style="fill:#c8b7be;stroke:#c8c4b7;stroke-width:1px;stroke-linecap:butt;stroke-linejoin:miter;stroke-opacity:1"
       d="M 160,160 150,80.000003"
       id="path2123-27-6"
       sodipodi:nodetypes="cc" />
    <path
       id="path3062"
       style="fill:#e6e6e6;fill-opacity:0.94117647;stroke:none;stroke-width:0.999997;stroke-dasharray:none;stroke-opacity:1;paint-order:stroke markers fill;stop-color:#000000"
       d="m 199.74684,234.00186 a 30.241817,21.731478 0 0 0 -26.20563,10.88695 25.201514,16.298609 0 0 0 -24.69355,16.2774 25.201514,16.298609 0 0 0 25.20151,16.29861 25.201514,16.298609 0 0 0 12.61256,-2.19013 30.241817,21.731478 0 0 0 13.0851,2.19013 30.241817,21.731478 0 0 0 14.103,-2.55092 30.241817,16.298609 0 0 0 16.13882,2.55092 30.241817,16.298609 0 0 0 30.24181,-16.29861 30.241817,16.298609 0 0 0 -30.24181,-16.29861 30.241817,16.298609 0 0 0 -3.94561,0.14009 30.241817,21.731478 0 0 0 -26.29621,-11.0058 z" />
    <path
       id="path1721-0"
       style="fill:#dbe2e3;fill-opacity:1;stroke:none;stroke-width:3;stroke-dasharray:none;stroke-opacity:1;paint-order:stroke markers fill;stop-color:#000000"
       d="m 458.39964,87.21193 a 14.621158,7.9488677 0 0 0 -14.21617,6.14718 13.291961,7.9488677 0 0 0 -9.12887,-2.17275 13.291961,7.9488677 0 0 0 -12.31377,5.00375 21.267138,15.897735 0 0 0 -7.51099,-1.02931 21.267138,15.897735 0 0 0 -21.26713,15.89775 21.267138,15.897735 0 0 0 21.26713,15.89772 21.267138,15.897735 0 0 0 13.55261,-3.67325 13.291961,8.9424763 0 0 0 7.71452,1.68604 13.291961,8.9424763 0 0 0 6.39469,-1.12945 26.583922,13.910518 0 0 0 14.87246,2.41648 26.583922,13.910518 0 0 0 26.58393,-13.91051 A 26.583922,13.910518 0 0 0 470,100 a 14.621158,7.9488677 0 0 0 3.02081,-4.8392 14.621158,7.9488677 0 0 0 -14.62117,-7.94887 z" />
    <path
       id="path3219"
       style="fill:#eef4ee;fill-opacity:1;stroke:none;stroke-width:3;stroke-dasharray:none;stroke-opacity:1;paint-order:stroke markers fill;stop-color:#000000"
       d="m 35.411108,86.417424 c 2.692481,0.0092 9.202165,-0.218021 11.526043,0.842234 1.381545,-0.286561 4.720407,-0.841179 6.147223,-0.842234 7.065721,0.0153 14.425901,1.420377 16.904864,6.737878 0.934693,-0.103349 -0.956103,4.8e-4 0,0 7.49859,1.1e-4 14.359021,6.072025 14.359021,9.923508 1.6e-5,3.85148 -3.786804,7.76332 -11.28541,7.76342 C 66.148353,111.68754 62.003271,111.20419 60,110 c -3.209192,3.2897 -7.684029,5.05341 -13.831252,4.21117 C 40.789928,113.36894 34.642705,110 33.105899,106.63106 28.268151,107.91331 22.368586,103.6578 22.348259,97.366477 23.116662,91.470833 26.963195,86.417423 35.411108,86.417424 Z"
       sodipodi:nodetypes="cccccscccccc" />
  </g>
  <metadata
     id="metadata4511">
    <rdf:RDF>
      <cc:License
         rdf:about="http://creativecommons.org/licenses/by/4.0/">
        <cc:permits
           rdf:resource="http://creativecommons.org/ns#Reproduction" />
        <cc:permits
           rdf:resource="http://creativecommons.org/ns#Distribution" />
        <cc:requires
           rdf:resource="http://creativecommons.org/ns#Notice" />
        <cc:requires
           rdf:resource="http://creativecommons.org/ns#Attribution" />
        <cc:permits
           rdf:resource="http://creativecommons.org/ns#DerivativeWorks" />
      </cc:License>
      <cc:Work
         rdf:about="">
        <cc:license
           rdf:resource="http://creativecommons.org/licenses/by/4.0/" />
        <dc:title>Pushti 404</dc:title>
        <dc:creator>
          <cc:Agent>
            <dc:title>Sanjeev Premi</dc:title>
          </cc:Agent>
        </dc:creator>
        <dc:rights>
          <cc:Agent>
            <dc:title>All rights reserved.</dc:title>
          </cc:Agent>
        </dc:rights>
        <dc:publisher>
          <cc:Agent>
            <dc:title>Sanjeev Premi</dc:title>
          </cc:Agent>
        </dc:publisher>
        <dc:subject>
          <rdf:Bag>
            <rdf:li>404</rdf:li>
            <rdf:li>error</rdf:li>
          </rdf:Bag>
        </dc:subject>
        <dc:description>Image for 404 page of Pushti.</dc:description>
      </cc:Work>
    </rdf:RDF>
  </metadata>
</svg>
